<svg width="512" height="512" xmlns="http://www.w3.org/2000/svg" clip-rule="evenodd" xml:space="preserve" version="1.1"> <g><title>Layer 1</title><g id="svg_1"> <path id="svg_2" d="m512,62.747c0,-34.631 -28.116,-62.747 -62.747,-62.747l-386.506,0c-34.631,0 -62.747,28.116 -62.747,62.747l0,386.506c0,34.631 28.116,62.747 62.747,62.747l386.506,0c34.631,0 62.747,-28.116 62.747,-62.747l0,-386.506zm-228.454,193.255c0,67.436 -54.297,122.103 -121.271,122.103c-66.974,0 -121.275,-54.667 -121.275,-122.103c0,-67.436 54.296,-122.107 121.275,-122.107c66.978,0 121.271,54.671 121.271,122.107zm133.038,0c0,63.476 -27.148,114.955 -60.637,114.955c-33.49,0 -60.638,-51.479 -60.638,-114.955c0,-63.476 27.144,-114.954 60.633,-114.954c33.49,0 60.638,51.461 60.638,114.954l0.004,0zm54.416,0c0,56.859 -9.547,102.981 -21.326,102.981c-11.78,0 -21.323,-46.109 -21.323,-102.981c0,-56.872 9.547,-102.981 21.323,-102.981c11.775,0 21.326,46.105 21.326,102.981z"/></g><ellipse ry="122.5" rx="121.5" id="svg_3" cy="256.50001" cx="162.5" stroke="#000" fill="#fff"/><ellipse ry="115" rx="61" id="svg_5" cy="256" cx="355" stroke="#000" fill="#fff"/><ellipse ry="103" rx="21.5" id="svg_6" cy="256" cx="449.5" stroke="#000" fill="#fff"/> </g></svg>
